<svg xmlns="http://www.w3.org/2000/svg" xmlns:xlink="http://www.w3.org/1999/xlink" width="5000" zoomAndPan="magnify" viewBox="0 0 3750 3749.999967" height="5000" preserveAspectRatio="xMidYMid meet" version="1.0"><path fill="#1e1b4b" d="M 1572.714844 374.6875 C 1396.292969 466.097656 1312.144531 668.84375 1173.246094 811.0625 C 1109.765625 876.144531 1033.488281 928.675781 950.445312 965.832031 C 893.238281 991.421875 821.390625 1000.035156 770.210938 1036.941406 C 642.632812 1128.71875 550.484375 1356.320312 513.945312 1503.089844 C 466.457031 1694.519531 499.429688 1917.320312 643.492188 2052.035156 C 808.839844 2206.679688 1067.933594 2208.035156 1256.535156 2333.398438 C 1416.59375 2439.691406 1506.277344 2620.789062 1615.773438 2778.753906 C 1725.265625 2936.597656 1886.433594 3088.289062 2078.230469 3078.570312 C 2253.175781 3069.714844 2390.105469 2930.9375 2507.71875 2801.144531 C 2609.582031 2688.699219 2712.3125 2574.039062 2778.992188 2437.847656 C 2845.671875 2301.65625 2872.492188 2138.644531 2816.882812 1997.535156 C 2746.636719 1819.636719 2566.894531 1715.3125 2407.449219 1609.753906 C 2247.886719 1504.195312 2083.519531 1359.148438 2077.738281 1167.964844 C 2073.679688 1031.898438 2152.785156 906.289062 2164.472656 770.710938 C 2176.898438 626.648438 2105.789062 478.277344 1985.589844 397.941406 C 1865.394531 317.359375 1701.152344 308.253906 1572.714844 374.6875 Z M 1827.503906 840.46875 C 1909.929688 895.582031 1958.648438 997.328125 1950.160156 1095.996094 C 1942.164062 1188.878906 1887.910156 1275.121094 1890.613281 1368.375 C 1894.550781 1499.398438 2007.246094 1598.929688 2116.613281 1671.265625 C 2225.984375 1743.605469 2349.257812 1815.207031 2397.363281 1937.128906 C 2435.5 2033.828125 2417.046875 2145.535156 2371.402344 2238.914062 C 2325.761719 2332.289062 2255.265625 2410.90625 2185.511719 2488.042969 C 2104.925781 2576.992188 2011.058594 2672.214844 1891.105469 2678.242188 C 1759.589844 2684.886719 1649.113281 2580.925781 1574.066406 2472.664062 C 1499.019531 2364.402344 1437.507812 2240.265625 1327.765625 2167.433594 C 1198.464844 2081.5625 1020.816406 2080.578125 907.507812 1974.527344 C 808.71875 1882.136719 786.078125 1729.335938 818.804688 1598.191406 C 843.78125 1497.554688 907.015625 1341.554688 994.488281 1278.566406 C 1029.671875 1253.222656 1078.882812 1247.316406 1118.128906 1229.847656 C 1175.089844 1204.382812 1227.253906 1168.332031 1270.804688 1123.796875 C 1365.90625 1026.238281 1423.605469 887.339844 1544.664062 824.597656 C 1632.503906 778.953125 1745.074219 785.351562 1827.503906 840.46875 Z M 1827.503906 840.46875 " fill-opacity="1" fill-rule="nonzero"/></svg>