<svg xmlns="http://www.w3.org/2000/svg" xmlns:xlink="http://www.w3.org/1999/xlink" width="5000" zoomAndPan="magnify" viewBox="0 0 3750 3749.999967" height="5000" preserveAspectRatio="xMidYMid meet" version="1.0"><path fill="#1e1b4b" d="M 1549.074219 1352.226562 C 1606.96875 1359.488281 1667.167969 1382.890625 1721.535156 1361.707031 C 1779.269531 1339.214844 1807.214844 1275.839844 1839.050781 1222.683594 C 1879.53125 1155.097656 1934.769531 1096.398438 1999.78125 1051.894531 C 2059.292969 1011.152344 2130.085938 981.769531 2201.976562 987.605469 C 2284.339844 994.289062 2358.851562 1048.222656 2400.726562 1119.457031 C 2442.601562 1190.695312 2454.097656 1277.09375 2443.792969 1359.082031 C 2433.070312 1444.347656 2400.085938 1531.007812 2423.285156 1613.757812 C 2437.367188 1663.996094 2470.699219 1706.152344 2500.988281 1748.628906 C 2596.765625 1882.945312 2669.949219 2058.378906 2605 2210.019531 C 2566 2301.066406 2480.308594 2368.019531 2384.988281 2394.949219 C 2289.667969 2421.878906 2186.144531 2411.273438 2093.378906 2376.5625 C 2022.964844 2350.214844 1956.800781 2310.152344 1882.660156 2297.636719 C 1817.898438 2286.699219 1749.566406 2298.203125 1691.949219 2329.730469 C 1655.964844 2349.421875 1624.1875 2376.546875 1586.835938 2393.496094 C 1488.242188 2438.230469 1364.5625 2399.972656 1292.933594 2318.78125 C 1169.964844 2179.402344 1198.15625 1943.234375 1200.234375 1768.527344 C 1202.738281 1557.785156 1288.019531 1319.507812 1549.074219 1352.226562 Z M 1549.074219 1352.226562 " fill-opacity="1" fill-rule="nonzero"/></svg>